<svg width="37" height="43" viewBox="0 0 37 43" fill="none" xmlns="http://www.w3.org/2000/svg">
<path d="M30.1357 1H2.23608C1.55459 1 1 1.5545 1 2.23609V41.0474C1 41.7289 1.5545 42.2835 2.23608 42.2835H30.1356C33.3693 42.2835 36 39.6528 36 36.4191V6.86435C36.0001 3.63069 33.3694 1 30.1357 1ZM5.05554 39.8613H3.42226V3.42218H5.05554V39.8613ZM33.5779 36.4191C33.5779 38.3172 32.0338 39.8614 30.1356 39.8614H7.47755V3.42218H30.1356C32.0337 3.42218 33.5779 4.96628 33.5779 6.86435V36.4191Z" fill="url(#paint0_linear)" stroke="white" stroke-width="0.6"/>
<path d="M23.1852 18.8011C23.1852 18.7822 23.1843 18.8199 23.1852 18.8011V18.8011Z" fill="url(#paint1_linear)" stroke="white" stroke-width="0.6"/>
<path d="M26.0114 16.8428C25.8404 16.8428 25.6708 16.8549 25.5038 16.8787C25.0471 14.7188 23.1296 13.1157 20.8555 13.1157C18.8685 13.1157 17.1635 14.3421 16.4549 16.0772C16.1062 15.9806 15.7431 15.9299 15.3738 15.9299C13.1453 15.9299 11.3326 17.7428 11.3326 19.9711C11.3326 21.7778 12.5242 23.311 14.1627 23.8267V27.9283C14.1627 28.5971 14.7049 29.1394 15.3738 29.1394H26.0114C26.6803 29.1394 27.2225 28.5971 27.2225 27.9283V23.8012C28.6049 23.3035 29.5961 21.9792 29.5961 20.4275C29.5961 18.451 27.9879 16.8428 26.0114 16.8428ZM24.8003 26.7171H16.5848V24.0122H24.8003V26.7171ZM26.0114 21.59H15.3738C14.481 21.59 13.7547 20.8638 13.7547 19.971C13.7547 19.0781 14.481 18.3519 15.3738 18.3519C15.7838 18.3519 16.1619 18.5202 16.4753 18.7842C17.26 19.4457 18.5001 19.149 18.5257 17.8674C18.5257 16.5828 19.5708 15.5377 20.8554 15.5377C22.0873 15.5377 23.1063 16.4963 23.1809 17.7225C23.1831 17.8375 23.1849 18.5698 23.1852 18.8013C23.1852 19.4111 23.6766 19.9634 24.2865 19.9634C24.623 19.9634 24.9729 19.8124 25.2195 19.5751L25.2205 19.5755C25.436 19.3753 25.7168 19.265 26.0113 19.265C26.6524 19.265 27.1738 19.7866 27.1738 20.4275C27.1738 21.0684 26.6524 21.59 26.0114 21.59Z" fill="url(#paint2_linear)" stroke="white" stroke-width="0.6"/>
<defs>
<linearGradient id="paint0_linear" x1="25.6788" y1="3.77221" x2="7.79953" y2="40.0859" gradientUnits="userSpaceOnUse">
<stop stop-color="#D79F43"/>
<stop offset="1" stop-color="#C26D30"/>
</linearGradient>
<linearGradient id="paint1_linear" x1="23.1851" y1="18.7964" x2="23.1841" y2="18.7965" gradientUnits="userSpaceOnUse">
<stop stop-color="#D79F43"/>
<stop offset="1" stop-color="#C26D30"/>
</linearGradient>
<linearGradient id="paint2_linear" x1="24.2103" y1="14.1917" x2="18.5556" y2="29.6322" gradientUnits="userSpaceOnUse">
<stop stop-color="#D79F43"/>
<stop offset="1" stop-color="#C26D30"/>
</linearGradient>
</defs>
</svg>
