<svg width="1252" height="312" viewBox="0 0 1252 312" fill="none" xmlns="http://www.w3.org/2000/svg">
<path d="M605 83H617C619.122 83 621.157 83.8429 622.657 85.3431C624.157 86.8434 625 88.8783 625 91V119C625 117.409 624.368 115.883 623.243 114.757C622.117 113.632 620.591 113 619 113H605V83Z" stroke="url(#paint0_linear)" stroke-width="2" stroke-linecap="round" stroke-linejoin="round"/>
<path d="M645 83H633C630.878 83 628.843 83.8429 627.343 85.3431C625.843 86.8434 625 88.8783 625 91V119C625 117.409 625.632 115.883 626.757 114.757C627.883 113.632 629.409 113 631 113H645V83Z" stroke="url(#paint1_linear)" stroke-width="2" stroke-linecap="round" stroke-linejoin="round"/>
<path d="M52.9818 27H1199.02C1199.53 41.1166 1210.88 52.4678 1225 52.9818V259.018C1210.55 259.544 1199 271.423 1199 286C1199 286.335 1199.01 286.668 1199.02 287H52.9818C52.9939 286.668 53 286.335 53 286C53 271.423 41.4484 259.544 27 259.018V52.9818C41.1166 52.4679 52.4679 41.1166 52.9818 27Z" stroke="url(#paint2_linear)" stroke-width="2"/>
<defs>
<linearGradient id="paint0_linear" x1="619.102" y1="85.4174" x2="600.208" y2="110.564" gradientUnits="userSpaceOnUse">
<stop stop-color="#D79F43"/>
<stop offset="1" stop-color="#C26D30"/>
</linearGradient>
<linearGradient id="paint1_linear" x1="639.102" y1="85.4174" x2="620.208" y2="110.564" gradientUnits="userSpaceOnUse">
<stop stop-color="#D79F43"/>
<stop offset="1" stop-color="#C26D30"/>
</linearGradient>
<linearGradient id="paint2_linear" x1="882.796" y1="20.951" x2="847.707" y2="358.27" gradientUnits="userSpaceOnUse">
<stop stop-color="#D79F43"/>
<stop offset="1" stop-color="#C26D30"/>
</linearGradient>
</defs>
</svg>
