<svg width="46" height="46" viewBox="0 0 46 46" fill="none" xmlns="http://www.w3.org/2000/svg">
<path d="M19.6718 39.3415C24.0364 39.3406 28.2752 37.8795 31.7134 35.1909L42.523 46L46 42.5232L35.1904 31.7141C37.8805 28.2758 39.3425 24.0362 39.3436 19.6707C39.3436 8.82478 30.5183 0 19.6718 0C8.82525 0 0 8.82478 0 19.6707C0 30.5167 8.82525 39.3415 19.6718 39.3415ZM19.6718 4.91768C27.8085 4.91768 34.4256 11.5344 34.4256 19.6707C34.4256 27.807 27.8085 34.4238 19.6718 34.4238C11.535 34.4238 4.91794 27.807 4.91794 19.6707C4.91794 11.5344 11.535 4.91768 19.6718 4.91768Z" fill="white"/>
<path d="M12 17.6471H28V22.3529H12V17.6471Z" fill="white"/>
<path d="M22.3529 12L22.3529 28H17.6471L17.6471 12H22.3529Z" fill="white"/>
</svg>
