<svg width="42" height="42" viewBox="0 0 42 42" fill="none" xmlns="http://www.w3.org/2000/svg">
<path d="M21 0C9.42055 0 0 9.42055 0 21C0 32.5794 9.42055 42 21 42C32.5794 42 42 32.5794 42 21C42 9.42055 32.5794 0 21 0ZM21 40.3594C10.3252 40.3594 1.64062 31.6748 1.64062 21C1.64062 10.3252 10.3252 1.64062 21 1.64062C31.6748 1.64062 40.3594 10.3252 40.3594 21C40.3594 31.6748 31.6748 40.3594 21 40.3594Z" fill="url(#paint0_linear)"/>
<path d="M21 4.59375C15.9818 4.59375 11.306 6.84592 8.17154 10.7727C7.88895 11.1268 7.94686 11.6429 8.30091 11.9255C8.65495 12.2081 9.17109 12.1502 9.45377 11.7962C12.2752 8.26161 16.4836 6.23438 21 6.23438C29.1418 6.23438 35.7656 12.8582 35.7656 21C35.7656 29.1418 29.1418 35.7656 21 35.7656C12.8582 35.7656 6.23438 29.1418 6.23438 21C6.23438 20.021 6.33076 19.0422 6.52091 18.0905C6.60967 17.6462 6.32149 17.2142 5.87721 17.1254C5.43342 17.0366 5.00087 17.3248 4.91211 17.7691C4.7008 18.8263 4.59375 19.9133 4.59375 21C4.59375 30.0464 11.9536 37.4062 21 37.4062C30.0464 37.4062 37.4062 30.0464 37.4062 21C37.4062 11.9536 30.0464 4.59375 21 4.59375Z" fill="url(#paint1_linear)"/>
<path d="M12.4841 10.6512C12.031 10.6512 11.6638 11.0185 11.6638 11.4716V17.2138C11.6638 18.5528 12.3089 19.7438 13.3044 20.4928V29.7081C13.3044 31.0651 14.4084 32.169 15.7654 32.169C17.1223 32.169 18.2263 31.0651 18.2263 29.7081V20.4929C19.2218 19.7438 19.8669 18.5528 19.8669 17.2138V11.4716C19.8669 11.0185 19.4997 10.6512 19.0466 10.6512C18.5935 10.6512 18.2263 11.0185 18.2263 11.4716V15.5733H16.5857V11.4716C16.5857 11.0185 16.2184 10.6512 15.7654 10.6512C15.3123 10.6512 14.945 11.0185 14.945 11.4716V15.5733H13.3044V11.4716C13.3044 11.0185 12.9372 10.6512 12.4841 10.6512ZM16.5857 29.7082C16.5857 30.1605 16.2177 30.5285 15.7654 30.5285C15.313 30.5285 14.945 30.1605 14.945 29.7082V21.2329C15.2102 21.2869 15.4845 21.3154 15.7654 21.3154C16.0462 21.3154 16.3205 21.2869 16.5857 21.2329V29.7082ZM15.7654 19.6748C14.4084 19.6748 13.3045 18.5708 13.3044 17.2139L18.2263 17.2138C18.2263 18.5708 17.1223 19.6748 15.7654 19.6748Z" fill="url(#paint2_linear)"/>
<path d="M26.1628 32.1689C27.5198 32.1689 28.6237 31.065 28.6237 29.708V19.878C29.8949 19.1489 30.6745 17.8243 30.6745 16.177C30.6745 14.8841 30.2257 13.3744 29.4739 12.1384C28.5689 10.6504 27.393 9.83093 26.1628 9.83093C24.9327 9.83093 23.7568 10.6504 22.8517 12.1384C22.0999 13.3744 21.6511 14.8842 21.6511 16.177C21.6511 17.8244 22.4307 19.149 23.7019 19.878V29.7081C23.7019 31.0651 24.8059 32.1689 26.1628 32.1689ZM26.9831 29.7081C26.9831 30.1604 26.6151 30.5284 26.1628 30.5284C25.7105 30.5284 25.3425 30.1604 25.3425 29.7081V20.4345C25.6062 20.4736 25.8796 20.495 26.1628 20.495C26.446 20.495 26.7194 20.4737 26.9831 20.4345V29.7081ZM26.1628 11.4715C26.789 11.4715 27.4849 12.0253 28.0722 12.9909C28.6654 13.9661 29.0339 15.187 29.0339 16.1769C29.0339 18.151 27.5508 18.8543 26.1628 18.8543C24.7748 18.8543 23.2917 18.151 23.2917 16.1769C23.2917 14.2091 24.7385 11.4715 26.1628 11.4715Z" fill="url(#paint3_linear)"/>
<path d="M6.86584 15.2416H6.86642C7.31948 15.2416 7.68649 14.8743 7.68649 14.4213C7.68649 13.9682 7.3189 13.601 6.86584 13.601C6.41279 13.601 6.04553 13.9682 6.04553 14.4213C6.04553 14.8743 6.41279 15.2416 6.86584 15.2416Z" fill="url(#paint4_linear)"/>
<defs>
<linearGradient id="paint0_linear" x1="29.6145" y1="2.82033" x2="13.2981" y2="41.9093" gradientUnits="userSpaceOnUse">
<stop stop-color="#D79F43"/>
<stop offset="1" stop-color="#C26D30"/>
</linearGradient>
<linearGradient id="paint1_linear" x1="27.7301" y1="6.79713" x2="14.9829" y2="37.3354" gradientUnits="userSpaceOnUse">
<stop stop-color="#D79F43"/>
<stop offset="1" stop-color="#C26D30"/>
</linearGradient>
<linearGradient id="paint2_linear" x1="17.4479" y1="12.0962" x2="5.73822" y2="22.7905" gradientUnits="userSpaceOnUse">
<stop stop-color="#D79F43"/>
<stop offset="1" stop-color="#C26D30"/>
</linearGradient>
<linearGradient id="paint3_linear" x1="28.0136" y1="11.3309" x2="15.8141" y2="23.1368" gradientUnits="userSpaceOnUse">
<stop stop-color="#D79F43"/>
<stop offset="1" stop-color="#C26D30"/>
</linearGradient>
<linearGradient id="paint4_linear" x1="7.20258" y1="13.7111" x2="6.56531" y2="15.2381" gradientUnits="userSpaceOnUse">
<stop stop-color="#D79F43"/>
<stop offset="1" stop-color="#C26D30"/>
</linearGradient>
</defs>
</svg>
