<svg width="43" height="43" viewBox="0 0 43 43" fill="none" xmlns="http://www.w3.org/2000/svg">
<path d="M41.7743 10.9341C41.567 10.5194 41.0627 10.3512 40.6477 10.5586C40.233 10.766 40.0648 11.2705 40.2722 11.6853C42.1819 15.5047 41.4346 20.1013 38.4127 23.1231C34.5492 26.9866 28.2629 26.9866 24.3994 23.1231C20.5359 19.2597 20.5359 12.9733 24.3994 9.10995C27.2797 6.22961 31.5608 5.40295 35.3058 7.0042C35.7323 7.18662 36.2257 6.98858 36.4081 6.56219C36.5904 6.1358 36.3924 5.64222 35.966 5.45997C33.8621 4.56041 31.5566 4.30468 29.2984 4.72049C27.7208 5.01091 26.2404 5.61896 24.9286 6.50542C24.3677 5.35449 23.6217 4.30938 22.7052 3.39286C21.2766 1.96428 19.4965 0.931011 17.5574 0.404679C15.6777 -0.105613 13.6827 -0.134084 11.7879 0.322038C11.4813 0.39586 11.2419 0.635217 11.1681 0.941845C10.7119 2.83654 10.7405 4.83152 11.2508 6.71135C11.642 8.15169 12.3133 9.50401 13.218 10.69C12.911 10.7379 12.6055 10.7976 12.3022 10.8706C11.9956 10.9444 11.7563 11.1838 11.6824 11.4904C11.2262 13.3851 11.2549 15.3801 11.7651 17.2599C12.2915 19.199 13.3248 20.9791 14.7533 22.4077C16.9432 24.5976 19.9061 25.8011 22.9561 25.8008C23.5736 25.8008 24.1952 25.7508 24.814 25.6503C26.7365 26.9855 29.0159 27.7049 31.4061 27.7049C34.5014 27.7049 37.4115 26.4996 39.6003 24.3108C43.1341 20.7769 44.0078 15.4012 41.7743 10.9341ZM12.6919 1.84544C15.9157 1.24142 19.1816 2.2442 21.5178 4.5804C22.3901 5.45258 23.0811 6.46015 23.5744 7.57631C23.4516 7.6891 23.3304 7.80391 23.212 7.92232C22.6549 8.47948 22.1667 9.07997 21.7468 9.71271L16.4058 4.3717C16.0779 4.04382 15.5462 4.04382 15.2182 4.3717C14.8903 4.69958 14.8903 5.23137 15.2182 5.55933L20.8949 11.236C20.7834 11.4766 20.6812 11.7205 20.5872 11.9668C18.9699 11.0836 17.152 10.6041 15.3149 10.5558C13.0594 8.22828 12.0977 5.01695 12.6919 1.84544ZM15.941 21.22C13.6049 18.884 12.6021 15.6184 13.2059 12.3948C15.5643 11.9586 18.0395 12.3954 20.0935 13.6188C19.78 15.0499 19.74 16.5292 19.9724 17.9728L16.9201 14.9204C16.5922 14.5926 16.0604 14.5926 15.7324 14.9204C15.4046 15.2483 15.4046 15.7801 15.7324 16.1081L21.1338 21.5095C21.1427 21.5184 21.1524 21.5261 21.1615 21.5345C21.6496 22.4586 22.2711 23.3298 23.0261 24.1199C20.3929 24.1387 17.83 23.1093 15.941 21.22Z" fill="url(#paint0_linear)"/>
<path d="M25.0603 41.6328L22.1391 37.9376C20.5953 35.9846 19.1145 33.943 17.7378 31.8696C17.4812 31.4831 16.9601 31.378 16.5737 31.6344C16.1874 31.8911 16.0822 32.4122 16.3386 32.7984C17.7409 34.9103 19.2491 36.9897 20.8216 38.979L22.4867 41.0855L21.3832 40.9571C16.0109 40.3321 11.0815 37.7544 7.5032 33.6989L7.35497 33.5309C4.0799 29.8192 2.12297 25.1729 1.74722 20.2934L2.16966 19.9383C2.57069 19.6012 3.09795 19.4502 3.61672 19.5245L4.78033 19.6907C5.13433 19.7413 5.48177 19.562 5.64563 19.244C6.03061 18.4967 6.87206 18.1046 7.692 18.2903L8.56351 18.4879C9.83084 21.4075 11.2614 24.2895 12.8225 27.0597C13.0502 27.4637 13.5624 27.6065 13.9663 27.379C14.3704 27.1512 14.5133 26.6391 14.2856 26.2351C12.6838 23.3929 11.22 20.431 9.93506 17.4321C8.98074 15.2046 6.79815 13.7652 4.37477 13.7652C4.19546 13.7652 4.01909 13.7773 3.84533 13.7984C3.954 12.0919 4.66871 10.5023 5.88868 9.28221C6.21655 8.95433 6.21655 8.42254 5.88868 8.09466C5.5608 7.76679 5.02901 7.76679 4.70113 8.09466C3.05579 9.74001 2.14959 11.9277 2.14959 14.2546V14.3755C0.864457 15.138 0.000505357 16.5387 1.44864e-06 18.138V18.556C-0.000166521 19.015 0.0142789 19.4726 0.0400622 19.9285C0.0401462 19.9589 0.0418259 19.9893 0.0452692 20.0197C0.36987 25.4087 2.48839 30.5537 6.0957 34.6421L6.24393 34.8101C10.097 39.1768 15.4047 41.9523 21.1891 42.6253L24.3044 42.9876C24.337 42.9915 24.3694 42.9933 24.4018 42.9933C24.7034 42.9933 24.9854 42.8304 25.1349 42.5627C25.3003 42.2661 25.2709 41.8991 25.0603 41.6328ZM1.67953 18.1386C1.68003 16.653 2.88908 15.4445 4.37485 15.4445C5.47749 15.4445 6.51092 15.8573 7.29719 16.5648C6.19783 16.5604 5.15238 17.073 4.48294 17.9517L3.85431 17.8619C3.10114 17.7543 2.33864 17.8955 1.67944 18.2519V18.1386H1.67953Z" fill="url(#paint1_linear)"/>
<path d="M16.1516 29.3946L16.1376 29.3718C15.8952 28.9764 15.3781 28.8524 14.9829 29.0948C14.5875 29.3372 14.4634 29.8542 14.7058 30.2496L14.7198 30.2723C14.8783 30.5309 15.154 30.6733 15.4365 30.6733C15.5862 30.6733 15.7377 30.6333 15.8745 30.5494C16.27 30.307 16.3941 29.79 16.1516 29.3946Z" fill="url(#paint2_linear)"/>
<path d="M39.7273 8.0513C39.6853 8.00796 39.6431 7.96505 39.6003 7.9223C39.2725 7.59442 38.7407 7.59442 38.4127 7.9223C38.0848 8.25018 38.0848 8.78197 38.4127 9.10993C38.4494 9.14646 38.4856 9.18325 38.5215 9.2202C38.6862 9.3901 38.9051 9.47551 39.1245 9.47551C39.335 9.47551 39.5457 9.39682 39.7088 9.23868C40.0419 8.91584 40.0502 8.38422 39.7273 8.0513Z" fill="url(#paint3_linear)"/>
<path d="M31.4062 7.55115C26.6832 7.55115 22.8409 11.3935 22.8409 16.1164C22.8409 20.8393 26.6833 24.6817 31.4062 24.6817C36.1291 24.6817 39.9715 20.8393 39.9715 16.1164C39.9715 11.3935 36.1292 7.55115 31.4062 7.55115ZM25.0679 18.8063C24.7156 17.9795 24.5204 17.0704 24.5204 16.1164C24.5204 15.1624 24.7157 14.2534 25.0678 13.4266L29.7268 16.1165L25.0679 18.8063ZM30.5665 22.9492C28.6697 22.7174 27.0087 21.7129 25.9102 20.2591L30.5665 17.5708V22.9492ZM30.5665 14.6619L25.9102 11.9735C27.0086 10.5198 28.6697 9.51538 30.5665 9.2835V14.6619ZM32.2459 9.28367C34.1427 9.51547 35.8037 10.5199 36.9023 11.9737L32.2459 14.6621V9.28367ZM32.246 22.9492V17.5709L36.9023 20.2592C35.8037 21.7129 34.1427 22.7174 32.246 22.9492ZM33.0857 16.1165L37.7447 13.4266C38.0968 14.2534 38.2921 15.1624 38.2921 16.1164C38.2921 17.0703 38.0969 17.9795 37.7446 18.8063L33.0857 16.1165Z" fill="url(#paint4_linear)"/>
<path d="M30.4417 30.3166C29.6506 29.2056 28.5713 28.5938 27.4024 28.5938C26.2335 28.5938 25.1541 29.2056 24.363 30.3166C23.6334 31.3411 23.2318 32.6889 23.2318 34.1116C23.2318 35.5342 23.6335 36.882 24.363 37.9064C25.1541 39.0174 26.2335 39.6293 27.4024 39.6293C28.5713 39.6293 29.6506 39.0174 30.4417 37.9064C31.1713 36.882 31.5729 35.5342 31.5729 34.1116C31.5729 32.6889 31.1712 31.3412 30.4417 30.3166ZM27.4024 37.9498C27.0134 37.9498 26.4253 37.1237 26.4253 35.8784C26.4253 34.6333 27.0134 33.8071 27.4024 33.8071C27.7913 33.8071 28.3794 34.6333 28.3794 35.8784C28.3794 37.1237 27.7913 37.9498 27.4024 37.9498ZM29.8801 34.5023C29.4989 33.0994 28.5461 32.1277 27.4024 32.1277C26.2587 32.1277 25.3059 33.0994 24.9248 34.5023C24.9159 34.3736 24.9113 34.2432 24.9113 34.1116C24.9112 32.031 26.052 30.2733 27.4024 30.2733C28.7527 30.2733 29.8936 32.0311 29.8936 34.1116C29.8936 34.2432 29.889 34.3736 29.8801 34.5023Z" fill="url(#paint5_linear)"/>
<path d="M42.9267 38.6292C42.7181 37.3889 42.0491 36.1518 41.0432 35.1458C40.0373 34.1399 38.8002 33.4709 37.5597 33.2622C36.2147 33.0362 35.0189 33.3667 34.1924 34.1933C33.3658 35.0199 33.0351 36.2157 33.2613 37.5607C33.47 38.8011 34.1389 40.0381 35.1448 41.044C36.1508 42.0499 37.3878 42.7188 38.6283 42.9275C38.9047 42.9741 39.1745 42.997 39.4365 42.997C40.449 42.9969 41.3391 42.6533 41.9957 41.9966C42.8223 41.17 43.153 39.9741 42.9267 38.6292ZM36.6191 40.1245C36.5215 40.0391 36.4259 39.9498 36.3326 39.8565C35.5713 39.0952 35.0688 38.1811 34.9176 37.2822C34.784 36.4878 34.9481 35.8126 35.3799 35.3809C35.7137 35.047 36.1929 34.8732 36.7603 34.8732C36.9267 34.8732 37.1009 34.8883 37.2812 34.9186C38.1801 35.0697 39.0944 35.5722 39.8555 36.3335C39.9487 36.4266 40.0375 36.522 40.1223 36.6194C38.8608 35.897 37.5 35.8836 36.6913 36.6923C35.8824 37.5012 35.896 38.8626 36.6191 40.1245ZM40.8083 40.8091C40.5331 41.0843 39.533 40.9158 38.6525 40.0354C37.7721 39.1549 37.6037 38.1548 37.8788 37.8797C37.9574 37.8011 38.095 37.7588 38.272 37.7588C38.7151 37.7588 39.4054 38.0244 40.0344 38.6535C40.4682 39.0872 40.7798 39.6074 40.8894 40.0809C40.9656 40.4098 40.9352 40.6821 40.8083 40.8091Z" fill="url(#paint6_linear)"/>
<path d="M40.5652 27.2004C40.409 27.0442 40.1924 26.9543 39.9715 26.9543C39.7506 26.9543 39.5341 27.0442 39.3778 27.2004C39.2216 27.3566 39.1317 27.5732 39.1317 27.7941C39.1317 28.015 39.2216 28.2316 39.3778 28.3877C39.534 28.5439 39.7506 28.6339 39.9715 28.6339C40.1924 28.6339 40.409 28.544 40.5652 28.3877C40.7214 28.2316 40.8112 28.015 40.8112 27.7941C40.8112 27.5732 40.7214 27.3566 40.5652 27.2004Z" fill="url(#paint7_linear)"/>
<path d="M35.3587 28.8398C35.2025 28.6836 34.9859 28.5936 34.7651 28.5936C34.5442 28.5936 34.3277 28.6835 34.1714 28.8398C34.0152 28.9959 33.9253 29.2125 33.9253 29.4334C33.9253 29.6543 34.0152 29.8709 34.1714 30.0271C34.3276 30.1833 34.5442 30.2732 34.7651 30.2732C34.9859 30.2732 35.2025 30.1834 35.3587 30.0271C35.515 29.8708 35.6048 29.6543 35.6048 29.4334C35.6048 29.2125 35.515 28.9959 35.3587 28.8398Z" fill="url(#paint8_linear)"/>
<path d="M38.6875 29.8868C38.5313 29.7306 38.3147 29.6407 38.0938 29.6407C37.8729 29.6408 37.6563 29.7306 37.5001 29.8868C37.3439 30.043 37.254 30.2588 37.254 30.4805C37.254 30.7014 37.3439 30.918 37.5001 31.0741C37.6563 31.2303 37.8729 31.3203 38.0938 31.3203C38.3147 31.3203 38.5313 31.2304 38.6875 31.0741C38.8445 30.918 38.9336 30.7014 38.9336 30.4805C38.9335 30.2588 38.8445 30.043 38.6875 29.8868Z" fill="url(#paint9_linear)"/>
<defs>
<linearGradient id="paint0_linear" x1="33.518" y1="1.86018" x2="23.8756" y2="28.6698" gradientUnits="userSpaceOnUse">
<stop stop-color="#D79F43"/>
<stop offset="1" stop-color="#C26D30"/>
</linearGradient>
<linearGradient id="paint1_linear" x1="17.7979" y1="10.2087" x2="1.11193" y2="38.9188" gradientUnits="userSpaceOnUse">
<stop stop-color="#D79F43"/>
<stop offset="1" stop-color="#C26D30"/>
</linearGradient>
<linearGradient id="paint2_linear" x1="15.7761" y1="29.0851" x2="15.1124" y2="30.6672" gradientUnits="userSpaceOnUse">
<stop stop-color="#D79F43"/>
<stop offset="1" stop-color="#C26D30"/>
</linearGradient>
<linearGradient id="paint3_linear" x1="39.4341" y1="7.7972" x2="38.7347" y2="9.47113" gradientUnits="userSpaceOnUse">
<stop stop-color="#D79F43"/>
<stop offset="1" stop-color="#C26D30"/>
</linearGradient>
<linearGradient id="paint4_linear" x1="34.9198" y1="8.70147" x2="28.2649" y2="24.6447" gradientUnits="userSpaceOnUse">
<stop stop-color="#D79F43"/>
<stop offset="1" stop-color="#C26D30"/>
</linearGradient>
<linearGradient id="paint5_linear" x1="29.1132" y1="29.3348" x2="24.0095" y2="38.5764" gradientUnits="userSpaceOnUse">
<stop stop-color="#D79F43"/>
<stop offset="1" stop-color="#C26D30"/>
</linearGradient>
<linearGradient id="paint6_linear" x1="40.105" y1="33.8512" x2="36.2962" y2="42.9758" gradientUnits="userSpaceOnUse">
<stop stop-color="#D79F43"/>
<stop offset="1" stop-color="#C26D30"/>
</linearGradient>
<linearGradient id="paint7_linear" x1="40.316" y1="27.0671" x2="39.6635" y2="28.6302" gradientUnits="userSpaceOnUse">
<stop stop-color="#D79F43"/>
<stop offset="1" stop-color="#C26D30"/>
</linearGradient>
<linearGradient id="paint8_linear" x1="35.1095" y1="28.7064" x2="34.4571" y2="30.2695" gradientUnits="userSpaceOnUse">
<stop stop-color="#D79F43"/>
<stop offset="1" stop-color="#C26D30"/>
</linearGradient>
<linearGradient id="paint9_linear" x1="38.4383" y1="29.7535" x2="37.7858" y2="31.3166" gradientUnits="userSpaceOnUse">
<stop stop-color="#D79F43"/>
<stop offset="1" stop-color="#C26D30"/>
</linearGradient>
</defs>
</svg>
