<svg width="42" height="33" viewBox="0 0 42 33" fill="none" xmlns="http://www.w3.org/2000/svg">
<path d="M38.4289 5.71307C36.5138 4.18671 33.8106 2.93705 30.3945 1.99894C23.8245 0.194743 16.4157 0 13.5352 0C6.07187 0 0 6.07195 0 13.5353V19.2701C0 26.7336 6.07187 32.8054 13.5352 32.8054C16.9767 32.8054 19.5613 31.7274 22.2976 30.586C25.1273 29.4057 28.0533 28.1852 32.1685 28.1852C37.5896 28.1852 42 23.7747 42 18.3537V12.6189C42 9.92504 40.7985 7.60159 38.4289 5.71307ZM37.7381 19.7366C38.0487 20.0666 38.5679 20.0822 38.8977 19.7717C39.4541 19.2478 39.9435 18.6642 40.3594 18.0357V18.3537C40.3594 22.8702 36.6849 26.5446 32.1685 26.5446C27.7248 26.5446 24.6447 27.8293 21.666 29.0718C19.0856 30.1481 16.6482 31.1648 13.5352 31.1648C7.2336 31.1648 2.06161 26.2386 1.66589 20.035C3.96933 24.2246 8.426 27.0705 13.5352 27.0705C16.9767 27.0705 19.5613 25.9924 22.2976 24.851C25.1273 23.6707 28.0533 22.4502 32.1685 22.4502C32.4742 22.4502 32.7831 22.4358 33.0866 22.4074C33.5377 22.3652 33.8691 21.9653 33.8268 21.5142C33.7846 21.0632 33.3842 20.7318 32.9336 20.774C32.6807 20.7976 32.4233 20.8097 32.1685 20.8097C27.7248 20.8097 24.6447 22.0945 21.666 23.3369C19.0856 24.4132 16.6482 25.4299 13.5352 25.4299C6.97651 25.4299 1.64062 20.094 1.64062 13.5354C1.64062 6.97668 6.97651 1.64071 13.5352 1.64071C16.3492 1.64071 23.5825 1.82979 29.96 3.58107C36.8605 5.47608 40.3594 8.51681 40.3594 12.6189C40.3594 14.8579 39.4167 17.0296 37.7731 18.577C37.4432 18.8876 37.4276 19.4068 37.7381 19.7366Z" fill="url(#paint0_linear)"/>
<path d="M37.0636 20.2602C36.8706 19.8502 36.3818 19.6743 35.9721 19.8672C35.9662 19.8699 35.9584 19.8738 35.9525 19.8767C35.5474 20.0793 35.3832 20.572 35.5857 20.9772C35.7294 21.2646 36.0192 21.4308 36.3201 21.4308C36.4417 21.4308 36.5651 21.4037 36.6814 21.3465C37.0836 21.1502 37.2548 20.6665 37.0636 20.2602Z" fill="url(#paint1_linear)"/>
<path d="M19.4568 3.51246L19.4146 3.50901C18.9622 3.47374 18.5676 3.8099 18.5316 4.26157C18.4956 4.71315 18.8325 5.10846 19.284 5.14455L19.326 5.14783C19.3482 5.14963 19.3703 5.15054 19.3922 5.15054C19.8156 5.15054 20.1747 4.82487 20.2091 4.3956C20.2452 3.94394 19.9084 3.54863 19.4568 3.51246Z" fill="url(#paint2_linear)"/>
<path d="M38.2065 10.4089C37.3929 8.80076 35.5824 7.41099 32.8254 6.2783C30.5945 5.36177 28.1548 4.78279 26.501 4.45836C25.5098 4.26403 24.4711 4.09045 23.4137 3.94263C22.9653 3.8793 22.5505 4.19266 22.4877 4.64145C22.4249 5.09016 22.7378 5.50467 23.1865 5.56742C24.2144 5.71114 25.2233 5.87971 26.1853 6.06839C31.82 7.17343 35.668 9.02545 36.7426 11.1494C36.9683 11.5957 37.0781 12.0764 37.0781 12.6187C37.0781 15.3259 34.8756 17.5283 32.1685 17.5283C29.4312 17.5283 26.7732 17.9756 24.0424 18.8959C22.8662 19.2924 21.7242 19.7663 20.6198 20.2247C19.8893 20.5278 19.1339 20.8413 18.3842 21.1254C16.4921 21.8425 15.0419 22.1485 13.5352 22.1485C8.78577 22.1485 4.92177 18.2846 4.92177 13.5352C4.92177 8.78575 8.78577 4.92175 13.5352 4.92175C14.4618 4.92175 15.4024 4.93931 16.3308 4.97392C16.4884 4.97975 16.6462 4.98607 16.804 4.99304C17.2562 5.01355 17.6397 4.66229 17.6597 4.20964C17.6797 3.75707 17.3289 3.37391 16.8764 3.35397C16.7148 3.34684 16.5531 3.34035 16.3919 3.33437C15.4432 3.29901 14.482 3.28113 13.5351 3.28113C7.88105 3.28113 3.28107 7.88103 3.28107 13.5352C3.28107 19.1892 7.88097 23.7891 13.5351 23.7891C15.2525 23.7891 16.8765 23.4513 18.9655 22.6595C19.7392 22.3664 20.5065 22.0479 21.2486 21.7399C22.3276 21.2922 23.4433 20.8291 24.5663 20.4506C27.1255 19.5881 29.6122 19.1689 32.1685 19.1689C35.7803 19.169 38.7187 16.2306 38.7187 12.6188C38.7187 11.8131 38.5511 11.0903 38.2065 10.4089Z" fill="url(#paint3_linear)"/>
<path d="M14.3208 6.54419C12.0275 6.54419 10.1617 8.23608 10.1617 10.3157C10.1617 12.3954 12.0275 14.0873 14.3208 14.0873C16.6142 14.0873 18.4799 12.3954 18.4799 10.3157C18.4799 8.23608 16.6142 6.54419 14.3208 6.54419ZM14.3208 12.4466C12.9321 12.4466 11.8024 11.4907 11.8024 10.3157C11.8024 9.14072 12.9321 8.18473 14.3208 8.18473C15.7095 8.18473 16.8393 9.14064 16.8393 10.3157C16.8393 11.4907 15.7095 12.4466 14.3208 12.4466Z" fill="url(#paint4_linear)"/>
<defs>
<linearGradient id="paint0_linear" x1="29.6145" y1="2.20291" x2="19.0488" y2="34.6095" gradientUnits="userSpaceOnUse">
<stop stop-color="#D79F43"/>
<stop offset="1" stop-color="#C26D30"/>
</linearGradient>
<linearGradient id="paint1_linear" x1="36.6574" y1="19.8992" x2="36.0198" y2="21.4276" gradientUnits="userSpaceOnUse">
<stop stop-color="#D79F43"/>
<stop offset="1" stop-color="#C26D30"/>
</linearGradient>
<linearGradient id="paint2_linear" x1="19.7155" y1="3.61687" x2="19.0873" y2="5.15739" gradientUnits="userSpaceOnUse">
<stop stop-color="#D79F43"/>
<stop offset="1" stop-color="#C26D30"/>
</linearGradient>
<linearGradient id="paint3_linear" x1="28.2685" y1="4.65825" x2="23.153" y2="25.8347" gradientUnits="userSpaceOnUse">
<stop stop-color="#D79F43"/>
<stop offset="1" stop-color="#C26D30"/>
</linearGradient>
<linearGradient id="paint4_linear" x1="16.0269" y1="7.05071" x2="13.2976" y2="14.2611" gradientUnits="userSpaceOnUse">
<stop stop-color="#D79F43"/>
<stop offset="1" stop-color="#C26D30"/>
</linearGradient>
</defs>
</svg>
