<svg width="38" height="52" viewBox="0 0 38 52" fill="none" xmlns="http://www.w3.org/2000/svg">
<path fill-rule="evenodd" clip-rule="evenodd" d="M35.6991 18.9801L37.5543 15.8747C37.812 15.4607 37.7089 14.8914 37.2967 14.6326L34.3592 12.5106L34.9261 8.9395C34.9776 8.4737 34.7199 8.00791 34.2561 7.90439L30.7518 7.02455L29.8757 3.50518C29.7727 3.03939 29.3089 2.72885 28.845 2.83236L25.2892 3.40167L23.1763 0.451616C22.9186 0.0375725 22.3517 -0.0659383 21.9395 0.192839L18.8474 2.05603L15.7554 0.141083C15.3431 -0.117694 14.8277 -0.0141829 14.5185 0.39986L12.4056 3.34992L8.84976 2.78061C8.38596 2.72885 7.92215 2.98763 7.81908 3.45343L6.943 6.9728L3.43867 7.85264C2.97486 7.95615 2.66566 8.42195 2.76873 8.88775L3.3356 12.4589L0.398152 14.6326C-0.0141223 14.8914 -0.117191 15.4607 0.14048 15.8747L1.99571 18.9801L0.14048 22.0854C-0.117191 22.4994 -0.0141223 23.017 0.398152 23.3275L3.3356 25.4495L2.76873 29.0206C2.71719 29.4864 2.97486 29.9522 3.43867 30.0557L6.943 30.9355L7.81908 34.4549C7.92215 34.9207 8.38596 35.2312 8.84976 35.1277L9.31357 35.076V51.0684C9.31357 51.4307 9.51971 51.7412 9.82891 51.8965C10.1381 52.0518 10.5504 52 10.8081 51.793L18.8474 45.3236L26.8867 51.793C27.0413 51.9482 27.2475 52 27.4536 52C27.576 52 27.666 51.9676 27.7749 51.9284C27.8036 51.9181 27.8336 51.9073 27.8659 51.8965C28.1751 51.7412 28.3812 51.4307 28.3812 51.0684V35.076L28.845 35.1277C29.3089 35.1795 29.7727 34.9207 29.8757 34.4549L30.7518 30.9355L34.2561 30.0557C34.7199 29.9522 35.0292 29.4864 34.9261 29.0206L34.3592 25.4495L37.2967 23.3275C37.7089 23.0687 37.812 22.4994 37.5543 22.0854L35.6991 18.9801ZM18.2805 43.4086L11.1688 49.1535V34.7654L12.4056 34.5584L14.5185 37.5085C14.6731 37.7673 14.9823 37.8708 15.24 37.8708C15.3946 37.8708 15.5492 37.819 15.7038 37.7155L18.7959 35.8523L21.8879 37.7155C22.3002 37.9743 22.8155 37.8708 23.1247 37.4567L25.2376 34.5067L26.4745 34.7137V49.1118L19.4143 43.4086C19.0535 43.1498 18.5897 43.1498 18.2805 43.4086ZM33.7923 19.4458L35.5445 22.2924L32.8647 24.2591C32.607 24.4661 32.4524 24.8284 32.504 25.1389L33.0193 28.4513L29.7727 29.2276C29.4119 29.3311 29.1542 29.5899 29.1027 29.9004L28.3297 33.161L25.0315 32.6435C24.6708 32.5917 24.3616 32.747 24.1554 33.0058L22.1971 35.697L19.3627 33.9374C19.2081 33.8339 19.0535 33.7821 18.8989 33.7821C18.7443 33.7821 18.5897 33.8339 18.4351 33.9374L15.6007 35.697L13.6424 33.0058C13.4363 32.747 13.0756 32.5917 12.7664 32.6435L9.46817 33.161L8.69516 29.9004C8.59209 29.5382 8.33442 29.2794 8.02522 29.2276L4.77856 28.4513L5.2939 25.1389C5.34544 24.7767 5.19083 24.4661 4.93316 24.2591L2.25338 22.2924L4.00555 19.4458C4.16015 19.1353 4.16015 18.773 4.00555 18.4625L2.25338 15.6159L4.93316 13.6492C5.19083 13.4422 5.34544 13.0799 5.2939 12.7694L4.77856 9.45706L8.02522 8.68072C8.38596 8.57721 8.64363 8.31844 8.69516 8.00791L9.46817 4.74731L12.7664 5.26487C13.1271 5.31662 13.4363 5.16136 13.6424 4.90258L15.6007 2.2113L18.4351 3.97098C18.7443 4.12625 19.1051 4.12625 19.4143 3.97098L22.2487 2.2113L24.207 4.90258C24.4131 5.16136 24.7738 5.31662 25.083 5.26487L28.3812 4.74731L29.1542 8.00791C29.2573 8.37019 29.515 8.62897 29.8242 8.68072L33.0709 9.45706L32.5555 12.7694C32.504 13.1317 32.6586 13.4422 32.9162 13.6492L35.596 15.6159L33.7923 18.4625C33.6377 18.773 33.6377 19.1353 33.7923 19.4458ZM18.8474 5.42014C11.375 5.42014 5.34547 11.5273 5.34547 18.9801C5.34547 26.4328 11.375 32.54 18.8474 32.54C26.3199 32.54 32.3494 26.4328 32.3494 18.9801C32.3494 11.5273 26.3199 5.42014 18.8474 5.42014ZM18.8474 30.6768C12.4057 30.6768 7.2007 25.3977 7.2007 18.9801C7.2007 12.5624 12.4057 7.23158 18.8474 7.23158C25.2892 7.23158 30.4942 12.5106 30.4942 18.9283C30.4942 25.346 25.2892 30.6768 18.8474 30.6768ZM26.7321 16.3924C27.0413 16.4441 27.3505 16.7029 27.4536 17.0134C27.5567 17.324 27.4536 17.6863 27.1959 17.945L23.6916 21.3609L24.5162 26.1741C24.5677 26.4847 24.4646 26.847 24.1554 27.054C23.9493 27.1575 23.7947 27.2093 23.5885 27.2093C23.4662 27.2093 23.3761 27.1769 23.2673 27.1377C23.2386 27.1273 23.2085 27.1165 23.1763 27.1057L18.8474 24.8285L14.5185 27.1057C14.2093 27.3128 13.8486 27.261 13.5394 27.054C13.2817 26.847 13.1271 26.5364 13.1786 26.1741L14.0547 21.3091L10.5504 17.8933C10.2927 17.6863 10.1896 17.2722 10.2927 16.9617C10.3958 16.6512 10.6535 16.3924 11.0142 16.3406L15.8584 15.616L18.0229 11.2168C18.3321 10.5958 19.3627 10.5958 19.6719 11.2168L21.8364 15.616L26.7321 16.3924ZM21.7848 21.1539C21.7333 20.8433 21.8364 20.5328 22.0425 20.3258L24.4646 17.8933L21.0118 17.3757C20.7542 17.324 20.4965 17.117 20.3419 16.8582L18.7959 13.7011L17.2498 16.8582C17.1468 17.117 16.8891 17.324 16.5799 17.3757L13.1271 17.8933L15.6523 20.3258C15.8584 20.5328 15.9615 20.8433 15.9099 21.1539L15.3431 24.6215L18.4351 22.9653C18.5382 22.9136 18.6928 22.8618 18.8474 22.8618C18.9697 22.8618 19.0598 22.8942 19.1687 22.9334C19.1974 22.9437 19.2274 22.9545 19.2597 22.9653L22.3517 24.6215L21.7848 21.1539Z" fill="url(#paint0_linear)"/>
<defs>
<linearGradient id="paint0_linear" x1="26.5789" y1="3.49183" x2="2.00411" y2="46.1692" gradientUnits="userSpaceOnUse">
<stop stop-color="#D79F43"/>
<stop offset="1" stop-color="#C26D30"/>
</linearGradient>
</defs>
</svg>
