<svg width="43" height="43" viewBox="0 0 43 43" fill="none" xmlns="http://www.w3.org/2000/svg">
<path fill-rule="evenodd" clip-rule="evenodd" d="M37.8049 15.9569L42.754 11.0078C42.9622 10.7996 43.0461 10.4976 42.9753 10.2119C42.9045 9.92609 42.6892 9.69832 42.4078 9.61148L30.3561 5.89183C29.2697 2.39968 26.0407 0 22.3397 0C18.8994 0 15.8226 2.09666 14.5491 5.25951L0.589775 9.61224C0.309184 9.69975 0.0946884 9.92768 0.0243937 10.2131C-0.0459011 10.4985 0.0380831 10.8 0.245944 11.0079L5.32522 16.0872L2.12173 21.4265C1.99063 21.6449 1.96586 21.911 2.05421 22.15C2.14256 22.3889 2.33463 22.5748 2.57634 22.6553L7.22259 24.204V37.1209C7.22259 37.471 7.43977 37.7843 7.76757 37.9073L11.0186 39.1264C15.1904 40.6909 21.1781 42.9363 21.2207 42.9514C21.3874 43.0101 21.5751 43.0181 21.7581 42.9589C21.7605 42.9581 21.763 42.9576 21.7655 42.9567L36.8826 37.9177C37.2255 37.8034 37.4569 37.4824 37.4569 37.1209V23.8581L42.4118 22.3011C42.692 22.2131 42.9058 21.9851 42.9757 21.6999C43.0456 21.4147 42.9615 21.1137 42.7539 20.906L37.8049 15.9569ZM30.7382 8.39842C30.7382 8.18501 30.7292 7.97211 30.7131 7.75989L40.5808 10.8056L36.3902 14.996L29.5431 12.7139C30.3185 11.418 30.7382 9.92256 30.7382 8.39842ZM15.9844 6.21248C16.9167 3.5013 19.4708 1.67968 22.3397 1.67968C25.4304 1.67968 28.111 3.77022 28.8584 6.76341C28.9912 7.29528 29.0585 7.84538 29.0585 8.39842C29.0585 9.95834 28.5408 11.4204 27.5612 12.6272C26.2782 14.2096 24.375 15.1172 22.3397 15.1172C20.1397 15.1172 18.0761 14.0373 16.8192 12.2278C16.0354 11.1019 15.621 9.77761 15.621 8.39842C15.621 7.64835 15.7432 6.9129 15.9844 6.21248ZM2.41576 10.8023L14.0308 7.18056C13.9725 7.58184 13.9413 7.98832 13.9413 8.39833C13.9413 9.75056 14.2616 11.0603 14.8722 12.242L6.60959 14.996L2.41576 10.8023ZM4.10073 21.3929L6.75631 16.9667L20.2411 21.4617L17.5856 25.8878L4.10073 21.3929ZM20.6601 40.9482L8.90228 36.539V24.7639C12.6175 25.9958 14.7678 26.7178 16.0276 27.1408C17.6914 27.6994 17.802 27.7366 17.913 27.7378C17.9209 27.7379 17.9288 27.7378 17.9372 27.7377L17.959 27.7375C18.2477 27.7375 18.5242 27.5881 18.6793 27.3297L20.6601 24.0282V40.9482ZM21.4999 20.1108L9.03867 15.9571L15.8241 13.6954C17.4122 15.6478 19.803 16.7968 22.3397 16.7968C24.6864 16.7968 26.8919 15.8311 28.4783 14.1296L33.9611 15.957L21.4999 20.1108ZM22.3397 40.9948V23.39L25.3171 27.1113C25.5337 27.382 25.8942 27.4917 26.2247 27.3879L35.7772 24.3861V36.5156L22.3397 40.9948ZM26.2695 25.6132L22.9081 21.4118L36.3902 16.9179L40.5864 21.114L26.2695 25.6132ZM13.1015 31.0741C12.6379 31.0741 12.2617 31.4503 12.2617 31.9139C12.2617 32.3775 12.6379 32.7538 13.1015 32.7538C13.5651 32.7538 13.9414 32.3775 13.9414 31.9139C13.9414 31.4503 13.5651 31.0741 13.1015 31.0741ZM16.5677 32.2378L18.4355 32.9382C18.8698 33.1011 19.0898 33.5852 18.927 34.0195C18.7644 34.453 18.2809 34.6741 17.8457 34.511L15.9779 33.8106C15.5436 33.6477 15.3236 33.1636 15.4864 32.7293C15.6493 32.295 16.1334 32.075 16.5677 32.2378ZM18.4354 36.526L13.3964 34.6364C12.9621 34.4735 12.478 34.6936 12.3151 35.1279C12.1522 35.5622 12.3723 36.0463 12.8066 36.2092L17.8456 38.0988C17.9428 38.1353 18.0424 38.1526 18.1404 38.1526C18.4804 38.1526 18.8004 37.9445 18.9269 37.6073C19.0898 37.173 18.8698 36.6889 18.4354 36.526ZM25.1879 5.28493C25.5159 4.95698 26.0477 4.95689 26.3757 5.28493C26.7037 5.61298 26.7037 6.14476 26.3757 6.47272L21.3366 11.5118C21.0086 11.8397 20.4768 11.8397 20.1489 11.5118L18.4691 9.83217C18.1411 9.50413 18.141 8.97234 18.4691 8.64438C18.7971 8.31643 19.3289 8.31643 19.6569 8.64438L20.7427 9.73022L25.1879 5.28493Z" fill="url(#paint0_linear)"/>
<defs>
<linearGradient id="paint0_linear" x1="30.3197" y1="2.88745" x2="13.615" y2="42.9068" gradientUnits="userSpaceOnUse">
<stop stop-color="#D79F43"/>
<stop offset="1" stop-color="#C26D30"/>
</linearGradient>
</defs>
</svg>
