<?xml version="1.0" encoding="UTF-8" standalone="no"?>
<svg version="1.1" xmlns="http://www.w3.org/2000/svg" xmlns:xlink="http://www.w3.org/1999/xlink">
    <symbol viewBox="0 0 19 19" id="icon-loupe">
        <path d="M8 16C9.77498 15.9996 11.4988 15.4054 12.897 14.312L17.293 18.708L18.707 17.294L14.311 12.898C15.405 11.4997 15.9996 9.77544 16 8C16 3.589 12.411 0 8 0C3.589 0 0 3.589 0 8C0 12.411 3.589 16 8 16ZM8 2C11.309 2 14 4.691 14 8C14 11.309 11.309 14 8 14C4.691 14 2 11.309 2 8C2 4.691 4.691 2 8 2Z"/>
    </symbol>

    <!--
        Цветные иконки
    -->
    <symbol viewBox="0 0 60 60" id="image-fb">
        <path fill-rule="evenodd" clip-rule="evenodd" d="M0.000488281 30.0002C0.000488281 13.4317 13.4319 0.000244141 30.0005 0.000244141C46.569 0.000244141 60.0005 13.4317 60.0005 30.0002C60.0005 46.5688 46.569 60.0002 30.0005 60.0002C13.4319 60.0002 0.000488281 46.5688 0.000488281 30.0002Z" fill="#3B5998"/>
        <path fill-rule="evenodd" clip-rule="evenodd" d="M33.1274 47.6396V31.318H37.6329L38.23 25.6935H33.1274L33.1351 22.8784C33.1351 21.4114 33.2745 20.6254 35.3814 20.6254H38.1981V15.0002H33.692C28.2794 15.0002 26.3743 17.7287 26.3743 22.3172V25.6941H23.0005V31.3186H26.3743V47.6396H33.1274Z" fill="white"/>
    </symbol>
    <symbol viewBox="0 0 60 60" id="image-vk">
        <path fill-rule="evenodd" clip-rule="evenodd" d="M0.000488281 30.0002C0.000488281 13.4317 13.4319 0.000244141 30.0005 0.000244141C46.569 0.000244141 60.0005 13.4317 60.0005 30.0002C60.0005 46.5688 46.569 60.0002 30.0005 60.0002C13.4319 60.0002 0.000488281 46.5688 0.000488281 30.0002Z" fill="#4C6C91"/>
        <path fill-rule="evenodd" clip-rule="evenodd" d="M31.5698 39.8453C31.5698 39.8453 32.1473 39.7824 32.4432 39.4705C32.7139 39.1847 32.7045 38.6455 32.7045 38.6455C32.7045 38.6455 32.6685 36.1275 33.8596 35.7557C35.0334 35.39 36.5406 38.1907 38.1402 39.2677C39.3485 40.0819 40.2656 39.9037 40.2656 39.9037L44.54 39.8453C44.54 39.8453 46.775 39.7101 45.7154 37.9849C45.6277 37.8435 45.0972 36.7082 42.5382 34.3761C39.8571 31.9348 40.2171 32.3297 43.4444 28.1063C45.4102 25.5345 46.1959 23.9644 45.9501 23.2931C45.7169 22.6509 44.2708 22.8214 44.2708 22.8214L39.4596 22.8506C39.4596 22.8506 39.1027 22.803 38.8382 22.9581C38.58 23.1102 38.4125 23.4651 38.4125 23.4651C38.4125 23.4651 37.6519 25.4547 36.6361 27.1477C34.4935 30.7181 33.6373 30.907 33.2868 30.6858C32.4713 30.1681 32.6748 28.6087 32.6748 27.501C32.6748 24.0397 33.2101 22.5971 31.634 22.2238C31.1112 22.0993 30.7262 22.0179 29.388 22.0041C27.6711 21.9872 26.2187 22.0102 25.3954 22.4051C24.8476 22.6678 24.425 23.2547 24.6833 23.2884C25.001 23.3299 25.721 23.479 26.1028 23.989C26.5959 24.6481 26.5786 26.126 26.5786 26.126C26.5786 26.126 26.8619 30.2003 25.9166 30.7058C25.2686 31.053 24.3796 30.3448 22.4686 27.1047C21.4904 25.4454 20.7517 23.6111 20.7517 23.6111C20.7517 23.6111 20.6093 23.2685 20.3542 23.0841C20.0458 22.8614 19.6154 22.7922 19.6154 22.7922L15.0437 22.8214C15.0437 22.8214 14.3566 22.8398 14.1046 23.1333C13.8808 23.3929 14.0874 23.9322 14.0874 23.9322C14.0874 23.9322 17.6668 32.153 21.7205 36.2965C25.4377 40.0942 29.6572 39.8453 29.6572 39.8453H31.5698Z" fill="white"/>
    </symbol>
    <symbol viewBox="0 0 60 60" id="image-yt">
        <path fill-rule="evenodd" clip-rule="evenodd" d="M0.000488281 30.0002C0.000488281 13.4317 13.4319 0.000244141 30.0005 0.000244141C46.569 0.000244141 60.0005 13.4317 60.0005 30.0002C60.0005 46.5688 46.569 60.0002 30.0005 60.0002C13.4319 60.0002 0.000488281 46.5688 0.000488281 30.0002Z" fill="#FF0000"/>
        <path fill-rule="evenodd" clip-rule="evenodd" d="M45.3318 22.5918C44.9638 21.178 43.8794 20.0647 42.5025 19.6869C40.0072 19.0002 30.0005 19.0002 30.0005 19.0002C30.0005 19.0002 19.9938 19.0002 17.4983 19.6869C16.1214 20.0647 15.037 21.178 14.669 22.5918C14.0005 25.154 14.0005 30.5002 14.0005 30.5002C14.0005 30.5002 14.0005 35.8463 14.669 38.4087C15.037 39.8225 16.1214 40.9358 17.4983 41.3138C19.9938 42.0002 30.0005 42.0002 30.0005 42.0002C30.0005 42.0002 40.0072 42.0002 42.5025 41.3138C43.8794 40.9358 44.9638 39.8225 45.3318 38.4087C46.0005 35.8463 46.0005 30.5002 46.0005 30.5002C46.0005 30.5002 46.0005 25.154 45.3318 22.5918" fill="white"/>
        <path fill-rule="evenodd" clip-rule="evenodd" d="M27.0005 36.0002V26.0002L35.0005 31.0004L27.0005 36.0002Z" fill="#FF0000"/>
    </symbol>
    <symbol viewBox="0 0 60 60" id="image-ig">
        <path fill-rule="evenodd" clip-rule="evenodd" d="M0 30.0002C0 13.4317 13.4315 0.000244141 30 0.000244141C46.5685 0.000244141 60 13.4317 60 30.0002C60 46.5688 46.5685 60.0002 30 60.0002C13.4315 60.0002 0 46.5688 0 30.0002Z" fill="#B8C1CA"/>
        <path fill-rule="evenodd" clip-rule="evenodd" d="M30.0015 14.0002C25.6561 14.0002 25.1108 14.0192 23.4041 14.0969C21.7007 14.1749 20.5381 14.4446 19.5207 14.8403C18.4684 15.2489 17.5757 15.7956 16.6864 16.6853C15.7964 17.5746 15.2497 18.4673 14.8397 19.5193C14.443 20.537 14.173 21.7 14.0963 23.4027C14.02 25.1094 14 25.655 14 30.0004C14 34.3458 14.0193 34.8895 14.0967 36.5961C14.175 38.2995 14.4447 39.4622 14.84 40.4795C15.249 41.5319 15.7957 42.4245 16.6854 43.3139C17.5744 44.2039 18.467 44.7519 19.5187 45.1606C20.5367 45.5562 21.6997 45.8259 23.4028 45.9039C25.1094 45.9816 25.6545 46.0006 29.9995 46.0006C34.3452 46.0006 34.8889 45.9816 36.5956 45.9039C38.2989 45.8259 39.4629 45.5562 40.4809 45.1606C41.533 44.7519 42.4243 44.2039 43.3133 43.3139C44.2033 42.4245 44.75 41.5319 45.16 40.4799C45.5533 39.4622 45.8233 38.2992 45.9033 36.5965C45.98 34.8898 46 34.3458 46 30.0004C46 25.655 45.98 25.1097 45.9033 23.403C45.8233 21.6997 45.5533 20.537 45.16 19.5196C44.75 18.4673 44.2033 17.5746 43.3133 16.6853C42.4233 15.7953 41.5333 15.2486 40.4799 14.8403C39.4599 14.4446 38.2966 14.1749 36.5932 14.0969C34.8866 14.0192 34.3432 14.0002 29.9965 14.0002L30.0015 14.0002ZM28.5662 16.8836C28.9922 16.8829 29.4675 16.8836 30.0015 16.8836C34.2735 16.8836 34.7799 16.8989 36.4669 16.9756C38.0269 17.0469 38.8736 17.3076 39.4376 17.5266C40.1843 17.8166 40.7166 18.1633 41.2763 18.7233C41.8363 19.2833 42.183 19.8166 42.4736 20.5633C42.6926 21.1267 42.9536 21.9733 43.0246 23.5333C43.1013 25.22 43.118 25.7267 43.118 29.9967C43.118 34.2668 43.1013 34.7735 43.0246 36.4601C42.9533 38.0202 42.6926 38.8668 42.4736 39.4302C42.1836 40.1768 41.8363 40.7085 41.2763 41.2682C40.7163 41.8282 40.1846 42.1749 39.4376 42.4649C38.8743 42.6849 38.0269 42.9449 36.4669 43.0162C34.7802 43.0929 34.2735 43.1095 30.0015 43.1095C25.7291 43.1095 25.2228 43.0929 23.5361 43.0162C21.9761 42.9442 21.1294 42.6835 20.5651 42.4645C19.8184 42.1745 19.2851 41.8279 18.725 41.2679C18.165 40.7079 17.8184 40.1758 17.5277 39.4288C17.3087 38.8655 17.0477 38.0188 16.9767 36.4588C16.9 34.7721 16.8847 34.2655 16.8847 29.9927C16.8847 25.72 16.9 25.216 16.9767 23.5293C17.048 21.9693 17.3087 21.1227 17.5277 20.5586C17.8177 19.812 18.165 19.2786 18.725 18.7186C19.2851 18.1586 19.8184 17.812 20.5651 17.5213C21.1291 17.3013 21.9761 17.0413 23.5361 16.9696C25.0121 16.9029 25.5841 16.8829 28.5662 16.8796V16.8836ZM38.5423 19.5403C37.4822 19.5403 36.6222 20.3993 36.6222 21.4597C36.6222 22.5197 37.4822 23.3797 38.5423 23.3797C39.6023 23.3797 40.4623 22.5197 40.4623 21.4597C40.4623 20.3996 39.6023 19.5396 38.5423 19.5396V19.5403ZM30.0015 21.7837C25.4638 21.7837 21.7847 25.4627 21.7847 30.0004C21.7847 34.5381 25.4638 38.2155 30.0015 38.2155C34.5392 38.2155 38.2169 34.5381 38.2169 30.0004C38.2169 25.4627 34.5389 21.7837 30.0012 21.7837H30.0015ZM30.0015 24.667C32.9469 24.667 35.3349 27.0547 35.3349 30.0004C35.3349 32.9458 32.9469 35.3338 30.0015 35.3338C27.0558 35.3338 24.6681 32.9458 24.6681 30.0004C24.6681 27.0547 27.0558 24.667 30.0015 24.667Z" fill="white"/>
    </symbol>
</svg>